<svg viewBox="0 0 89 82" fill="none" xmlns="http://www.w3.org/2000/svg"><path d="M88.16 29.61 63.4.55H25.36L.59 29.61v8.01L44.38 81.4l43.78-43.78v-8.01Z" fill="#0E0823"></path><path d="m30.37 37.65 14.01-14.01 14.01 14.01 1.36-1.36-14.01-14.01 5.59-5.6h-2.72l-4.23 4.24-4.24-4.24h-2.72l5.6 5.6-14.01 14.01 1.36 1.36Z" fill="#fff"></path><path d="m33.3 40.58 11.08 11.08 11.08-11.08L44.38 29.5 33.3 40.58Zm11.08 8.36-8.36-8.36 8.36-8.36 8.36 8.36-8.36 8.36Z" fill="#fff"></path><path d="M63.65 0H25.1L0 29.45v8.12l44.38 44.37 44.38-44.37v-8.12L63.65 0Zm-5.04 10.91H30.14l-1.95-4.9h32.37l-1.95 4.9Zm-28.51.59h28.56l18.2 21.36-32.48 32.48-32.49-32.49L30.1 11.49v.01Zm50.48 17.64-3.31 3.31-18.13-21.29 1.95-4.9 19.48 22.87.01.01ZM27.66 6.26l1.95 4.9-18.13 21.27-3.31-3.31L27.66 6.26ZM.59 30.04l43.5 43.5v7.3L.59 37.34v-7.3Zm44.08 50.79v-7.3l43.5-43.49v7.3l-43.5 43.5v-.01Z" fill="#fff"></path></svg>